# xmcd CD database file
#
# Track frame offsets:
#	150
#	13104
#	24114
#	37336
#	51758
#	64637
#	77999
#	89601
#	101758
#	114397
#	125467
#	139079
#	152381
#	166568
#	185622
#	199527
#	215369
#	229768
#	244295
#	257702
#
# Disc length: 3635 seconds
#
# Revision: 0
# Processed by: cddbd v1.5.2PL0 Copyright (c) Steve Scherf et al.
# Submitted via: CDex 1.51
#
DISCID=0b0e3114
DTITLE=Sidney Bechet - Blackstick
DYEAR=2003
DGENRE=Jazz
TTITLE0=Ja-Da
TTITLE1=Lady Be Good
TTITLE2=Maple Leaf Rag
TTITLE3=Mood Indigo
TTITLE4=Polka Dot Rag
TTITLE5=Characteristic Blues
TTITLE6=Rompin
TTITLE7=When You and I Were Young Maggie
TTITLE8=Blackstick
TTITLE9=Everybody Loves My Baby
TTITLE10=I Ain't Gonna Give Nobody None of This Jelly Roll
TTITLE11=Okey Doke
TTITLE12=Royal Garden Blues
TTITLE13=St Louis Blues
TTITLE14=Viper Mad
TTITLE15=What Is This Thing Called Love
TTITLE16=I've Found A New Baby
TTITLE17=The Blues My Baby Gave Me
TTITLE18=Blues In Thirds
TTITLE19=Sweet Patootie
EXTD=YEAR: 2003
EXTT0=
EXTT1=
EXTT2=
EXTT3=
EXTT4=
EXTT5=
EXTT6=
EXTT7=
EXTT8=
EXTT9=
EXTT10=
EXTT11=
EXTT12=
EXTT13=
EXTT14=
EXTT15=
EXTT16=
EXTT17=
EXTT18=
EXTT19=
PLAYORDER=
